<?xml version="1.0" standalone="no"?>
<!DOCTYPE svg PUBLIC "-//W3C//DTD SVG 20010904//EN"
 "http://www.w3.org/TR/2001/REC-SVG-20010904/DTD/svg10.dtd">
<svg version="1.0" xmlns="http://www.w3.org/2000/svg"
 width="480.000000pt" height="480.000000pt" viewBox="0 0 480.000000 480.000000"
 preserveAspectRatio="xMidYMid meet">
<metadata>
Created by potrace 1.14, written by Peter Selinger 2001-2017
</metadata>
<g transform="translate(0.000000,480.000000) scale(0.100000,-0.100000)"
fill="#000000" stroke="none">
<path d="M2499 4616 c-2 -2 -71 -7 -154 -9 -82 -3 -175 -9 -205 -12 -30 -4
-65 -8 -77 -8 -13 -1 -23 -4 -23 -7 0 -3 -15 -7 -32 -8 -18 -2 -51 -7 -73 -13
-35 -10 -55 -15 -90 -22 -5 -2 -15 -5 -20 -9 -6 -3 -27 -9 -48 -13 -20 -4 -37
-11 -37 -17 0 -5 -5 -6 -10 -3 -6 4 -18 1 -27 -7 -9 -7 -18 -12 -20 -10 -7 7
-63 -10 -63 -18 0 -5 -13 -11 -30 -15 -16 -4 -30 -11 -30 -16 0 -5 -9 -9 -20
-9 -11 0 -20 -5 -20 -12 0 -6 -3 -9 -6 -5 -7 7 -146 -61 -156 -77 -4 -6 -8 -7
-8 -2 0 5 -6 3 -13 -3 -8 -6 -17 -8 -20 -4 -4 3 -7 1 -7 -5 0 -7 -6 -12 -14
-12 -7 0 -19 -7 -26 -15 -7 -9 -15 -13 -17 -11 -4 4 -29 -13 -59 -42 -8 -7
-14 -10 -14 -7 0 4 -15 -5 -32 -19 -52 -41 -53 -42 -60 -45 -9 -3 -81 -67
-159 -142 -33 -31 -59 -55 -59 -53 0 2 -25 -21 -55 -51 -30 -31 -55 -60 -55
-66 0 -6 -4 -8 -9 -4 -5 3 -12 -3 -15 -12 -4 -10 -20 -33 -36 -52 -17 -18 -30
-38 -30 -43 0 -5 -4 -6 -10 -3 -6 3 -10 -1 -10 -9 0 -9 -4 -16 -10 -16 -5 0
-10 -7 -10 -15 0 -8 -4 -15 -9 -15 -5 0 -12 -11 -15 -25 -4 -14 -11 -25 -17
-25 -6 0 -7 -4 -4 -10 3 -5 1 -10 -4 -10 -6 0 -18 -15 -26 -32 -17 -37 -47
-90 -55 -98 -10 -10 -42 -65 -53 -92 -6 -16 -15 -28 -20 -28 -4 0 -6 -4 -2 -9
3 -5 1 -12 -5 -16 -6 -4 -8 -11 -5 -16 4 -5 1 -9 -4 -9 -6 0 -11 -6 -11 -14 0
-7 -10 -35 -22 -62 -12 -27 -22 -52 -23 -56 0 -3 -3 -10 -7 -14 -5 -4 -8 -18
-8 -30 0 -13 -5 -26 -10 -29 -6 -4 -8 -11 -4 -16 3 -5 0 -16 -6 -24 -7 -8 -10
-15 -7 -15 4 0 0 -18 -8 -40 -8 -22 -12 -40 -10 -40 3 0 0 -12 -6 -27 -6 -16
-12 -35 -14 -43 -2 -8 -8 -33 -14 -55 -5 -22 -13 -56 -16 -75 -3 -19 -7 -46
-10 -60 -17 -98 -26 -329 -13 -347 5 -6 5 -14 0 -17 -5 -3 -8 -18 -6 -33 2
-16 6 -68 8 -118 3 -49 8 -101 11 -115 3 -14 8 -38 11 -55 3 -16 12 -64 21
-105 8 -41 18 -86 20 -100 3 -14 7 -32 10 -40 4 -8 7 -18 8 -22 2 -5 3 -9 5
-10 1 -2 3 -10 5 -18 4 -16 33 -103 46 -135 25 -64 122 -260 129 -263 5 -2 6
-10 3 -18 -3 -8 0 -14 6 -14 6 0 11 -7 11 -15 0 -8 4 -15 9 -15 5 0 14 -13 21
-30 7 -16 16 -30 21 -30 5 0 9 -7 9 -15 0 -8 5 -15 10 -15 6 0 10 -7 10 -15 0
-8 5 -15 10 -15 6 0 10 -5 10 -10 0 -6 22 -40 50 -75 27 -35 50 -69 50 -75 0
-6 5 -8 10 -5 6 3 10 2 10 -4 0 -14 246 -262 290 -292 37 -25 64 -46 85 -67 8
-6 18 -12 23 -12 6 0 12 -3 14 -7 5 -11 78 -65 78 -58 0 4 7 0 15 -8 8 -8 45
-32 82 -53 37 -20 70 -41 71 -46 2 -4 10 -8 18 -8 7 0 29 -9 49 -20 19 -11 36
-19 38 -19 1 0 16 -5 32 -12 17 -7 33 -12 38 -11 4 1 7 -3 7 -8 0 -6 10 -10
23 -10 13 0 27 -4 33 -9 25 -25 302 -101 337 -93 4 1 7 -2 7 -6 0 -9 7 -10 55
-13 14 -1 25 -5 25 -9 0 -3 10 -6 23 -5 12 1 33 -2 47 -7 53 -20 337 -28 480
-13 41 4 84 7 94 7 11 -1 54 6 95 14 42 9 88 17 102 19 14 3 38 9 54 15 15 6
30 9 32 6 3 -2 20 2 39 10 19 8 34 11 34 8 0 -4 7 -1 15 6 8 7 15 10 15 7 0
-3 27 5 60 18 33 13 60 20 60 17 0 -4 4 -2 8 3 4 6 25 16 47 24 22 8 63 24 92
37 28 13 57 24 62 24 6 0 11 4 11 8 0 4 15 15 33 23 48 23 168 90 186 105 52
43 194 144 202 144 6 0 8 4 4 9 -3 5 3 12 14 16 24 7 281 263 281 279 0 6 7
14 58 71 12 14 20 25 17 25 -3 0 6 12 20 28 14 15 31 39 38 54 6 16 15 28 19
28 5 0 8 5 8 11 0 6 14 31 31 55 31 45 108 201 107 218 0 5 4 12 9 15 9 7 52
106 58 135 2 10 9 24 16 32 6 8 9 14 5 14 -3 0 0 16 8 35 9 20 15 38 16 40 0
3 1 7 1 10 1 3 3 10 4 15 1 6 3 11 5 13 2 3 6 23 14 68 3 20 8 42 10 50 3 8 7
30 10 49 3 19 8 47 11 63 3 15 7 39 10 55 9 49 18 136 19 185 0 26 5 47 10 47
5 0 5 5 0 13 -5 6 -8 41 -7 77 3 74 3 69 0 132 -1 27 -4 48 -7 48 -3 0 -6 21
-6 48 -1 45 -11 124 -21 167 -2 11 -6 34 -9 50 -3 17 -8 37 -11 45 -5 13 -10
30 -17 65 -1 6 -5 16 -9 23 -5 6 -6 12 -3 12 3 0 1 12 -5 28 -6 15 -13 36 -15
46 -6 33 -36 120 -44 131 -5 6 -8 12 -8 15 -1 7 -15 44 -41 103 -11 26 -17 47
-13 47 4 0 2 4 -4 8 -5 4 -28 41 -50 82 -63 117 -125 209 -210 311 -44 51 -86
102 -94 113 -8 10 -25 29 -38 42 -13 13 -20 24 -17 24 5 0 -28 31 -108 100
-15 14 -44 40 -63 58 -19 17 -38 32 -43 32 -5 0 -11 3 -13 8 -4 10 -70 59
-143 107 -83 55 -96 63 -127 77 -16 7 -28 16 -28 20 0 4 -4 8 -9 8 -5 0 -48
18 -96 41 -142 66 -195 88 -195 82 0 -3 -6 0 -14 6 -7 6 -25 12 -40 13 -14 1
-26 6 -26 10 0 4 -7 8 -16 8 -16 0 -119 27 -189 50 -16 5 -50 12 -75 14 -51 6
-123 15 -160 22 -14 2 -54 7 -89 10 -36 3 -68 7 -72 9 -3 3 -8 3 -10 1z"/>
</g>
</svg>
